<svg xmlns="http://www.w3.org/2000/svg" viewBox="0 0 32 32">
  <rect width="32" height="32" rx="7" fill="#0D2B3E"/>
  <g fill="#00E5FF">
    <!-- ring -->
    <path d="M16 5.5a2.7 2.7 0 1 1 0 5.4 2.7 2.7 0 0 1 0-5.4zm0 1.7a1 1 0 1 0 0 2 1 1 0 0 0 0-2z"/>
    <!-- shaft -->
    <rect x="14.6" y="10" width="2.8" height="12.5" rx="1.4"/>
    <!-- crossbar -->
    <rect x="9.5" y="13" width="13" height="2.6" rx="1.3"/>
    <!-- hooks -->
    <path d="M8 22.5a1.4 1.4 0 0 1-1.4-1.4c0-3.8 2.9-6.9 6.6-7.3v2.8a4.5 4.5 0 0 0-3.8 4.5 1.4 1.4 0 0 1-1.4 1.4z"/>
    <path d="M24 22.5a1.4 1.4 0 0 0 1.4-1.4c0-3.8-2.9-6.9-6.6-7.3v2.8a4.5 4.5 0 0 1 3.8 4.5 1.4 1.4 0 0 0 1.4 1.4z"/>
  </g>
</svg>
